<?xml version="1.0" standalone="no"?>
<!DOCTYPE svg PUBLIC "-//W3C//DTD SVG 20010904//EN"
 "http://www.w3.org/TR/2001/REC-SVG-20010904/DTD/svg10.dtd">
<svg version="1.0" xmlns="http://www.w3.org/2000/svg"
 width="450.000000pt" height="150.000000pt" viewBox="0 0 450.000000 150.000000"
 preserveAspectRatio="xMidYMid meet">

<g transform="translate(0.000000,150.000000) scale(0.100000,-0.100000)"
fill="#000000" stroke="none">
<path d="M247 1062 c-136 -136 -247 -254 -247 -262 0 -8 113 -128 250 -265
l250 -250 255 255 c140 140 254 257 252 260 -1 3 -117 119 -257 257 l-255 253
-248 -248z m381 -5 c63 -34 92 -125 58 -187 -13 -22 -11 -27 12 -58 50 -66 25
-172 -50 -217 -27 -16 -57 -20 -161 -23 -92 -3 -131 -1 -142 8 -13 10 -15 51
-15 244 0 172 3 235 13 245 19 20 242 11 285 -12z"/>
<path d="M360 825 l0 -225 103 0 c160 0 205 20 227 99 13 50 -7 105 -44 123
-32 14 -32 17 -1 47 32 30 35 96 5 134 -28 35 -76 47 -192 47 l-98 0 0 -225z
m235 150 c32 -31 32 -59 0 -90 -21 -22 -33 -25 -100 -25 l-75 0 0 70 0 70 75
0 c67 0 79 -3 100 -25z m3 -181 c32 -22 43 -57 31 -92 -14 -39 -46 -52 -134
-52 l-75 0 0 80 0 80 78 0 c55 0 84 -5 100 -16z"/>
<path d="M450 930 l0 -41 61 3 c46 2 65 8 73 21 21 33 -4 52 -73 55 l-61 3 0
-41z"/>
<path d="M450 730 l0 -50 65 0 c58 0 66 3 81 25 15 23 15 27 0 50 -15 22 -23
25 -81 25 l-65 0 0 -50z"/>
<path d="M1920 1018 c-115 -32 -175 -166 -136 -302 23 -77 74 -129 146 -146
178 -43 308 110 259 305 -29 113 -149 177 -269 143z m140 -60 c54 -37 72 -69
77 -140 7 -80 -7 -124 -52 -168 -28 -27 -44 -34 -87 -38 -43 -3 -59 0 -88 20
-67 45 -95 138 -69 233 27 100 139 147 219 93z"/>
<path d="M2424 1020 c-95 -22 -156 -109 -157 -223 -1 -114 54 -195 152 -223
79 -24 162 -10 234 39 26 18 27 22 27 103 l0 84 -95 0 c-95 0 -95 0 -95 -25 0
-24 2 -25 65 -25 l65 0 0 -49 c0 -49 -1 -50 -46 -71 -92 -45 -206 -8 -235 77
-19 56 -16 144 8 189 28 54 63 77 126 82 66 5 110 -15 134 -62 16 -29 21 -32
41 -25 30 11 23 41 -20 86 -44 45 -124 63 -204 43z"/>
<path d="M2914 1020 c-95 -22 -156 -109 -157 -223 -1 -114 54 -195 152 -223
79 -24 162 -10 234 39 26 18 27 22 27 103 l0 84 -95 0 c-95 0 -95 0 -95 -25 0
-24 2 -25 65 -25 l65 0 0 -49 c0 -49 -1 -50 -46 -71 -92 -45 -206 -8 -235 77
-19 56 -16 144 8 189 28 54 63 77 126 82 66 5 110 -15 134 -62 16 -29 21 -32
41 -25 30 11 23 41 -20 86 -44 45 -124 63 -204 43z"/>
<path d="M4218 1019 c-54 -15 -88 -60 -88 -114 0 -68 27 -91 144 -125 54 -16
106 -36 117 -46 30 -27 24 -68 -13 -99 -28 -24 -38 -27 -90 -23 -64 5 -92 23
-115 76 -10 24 -19 32 -39 32 -24 0 -26 -3 -20 -32 15 -80 78 -122 181 -123
56 0 77 5 106 23 65 40 84 131 38 181 -28 30 -64 46 -146 65 -109 27 -140 70
-88 121 48 49 171 26 190 -35 8 -25 55 -28 55 -4 0 26 -31 70 -62 88 -35 22
-120 29 -170 15z"/>
<path d="M1020 795 l0 -225 103 0 c160 0 205 20 227 99 13 50 -7 105 -44 123
-32 14 -32 17 -1 47 32 30 35 96 5 134 -28 35 -76 47 -192 47 l-98 0 0 -225z
m235 150 c32 -31 32 -59 0 -90 -21 -22 -33 -25 -100 -25 l-75 0 0 70 0 70 75
0 c67 0 79 -3 100 -25z m3 -181 c32 -22 43 -57 31 -92 -14 -39 -46 -52 -134
-52 l-75 0 0 80 0 80 78 0 c55 0 84 -5 100 -16z"/>
<path d="M1440 795 l0 -225 140 0 140 0 0 25 0 25 -110 0 -110 0 0 200 0 200
-30 0 -30 0 0 -225z"/>
<path d="M3260 795 l0 -225 170 0 170 0 0 25 0 25 -140 0 -140 0 0 80 0 80
125 0 125 0 0 25 0 25 -125 0 -125 0 0 70 0 70 135 0 135 0 0 25 0 25 -165 0
-165 0 0 -225z"/>
<path d="M3680 795 l0 -225 30 0 30 0 0 100 0 100 54 0 c68 0 87 -15 156 -119
48 -75 55 -81 86 -81 19 0 34 2 34 5 0 14 -102 155 -126 174 -24 19 -25 21 -8
27 50 15 66 26 85 56 26 43 21 109 -12 144 -32 34 -78 44 -211 44 l-118 0 0
-225z m275 150 c14 -13 25 -36 25 -50 0 -14 -11 -37 -25 -50 -22 -23 -32 -25
-120 -25 l-95 0 0 75 0 75 95 0 c88 0 98 -2 120 -25z"/>
</g>
</svg>